<svg width="64" height="64" viewBox="0 0 64 64" fill="none" xmlns="http://www.w3.org/2000/svg">
<g clip-path="url(#clip0_6_961)">
<path d="M32 64C49.6731 64 64 49.6731 64 32C64 14.3269 49.6731 0 32 0C14.3269 0 0 14.3269 0 32C0 49.6731 14.3269 64 32 64Z" fill="#191977" style="fill:#191977;fill:color(display-p3 0.0980 0.0980 0.4667);fill-opacity:1;"/>
<path d="M35.3333 7.33334L32 4.00004L28.6667 7.33334L32 10.6666L35.3333 7.33334Z" fill="#FFD400" style="fill:#FFD400;fill:color(display-p3 1.0000 0.8314 0.0000);fill-opacity:1;"/>
<path d="M22.5534 8.97136L18 7.75129L16.7799 12.3047L21.3333 13.5247L22.5534 8.97136Z" fill="#FFD400" style="fill:#FFD400;fill:color(display-p3 1.0000 0.8314 0.0000);fill-opacity:1;"/>
<path d="M12.3047 16.7799L7.75128 18L8.97135 22.5534L13.5247 21.3333L12.3047 16.7799Z" fill="#FFD400" style="fill:#FFD400;fill:color(display-p3 1.0000 0.8314 0.0000);fill-opacity:1;"/>
<path d="M7.33336 28.6667L4.00006 32L7.33336 35.3333L10.6667 32L7.33336 28.6667Z" fill="#FFD400" style="fill:#FFD400;fill:color(display-p3 1.0000 0.8314 0.0000);fill-opacity:1;"/>
<path d="M8.97135 41.4467L7.75128 46L12.3047 47.2201L13.5247 42.6667L8.97135 41.4467Z" fill="#FFD400" style="fill:#FFD400;fill:color(display-p3 1.0000 0.8314 0.0000);fill-opacity:1;"/>
<path d="M16.7799 51.6954L18 56.2488L22.5534 55.0287L21.3333 50.4753L16.7799 51.6954Z" fill="#FFD400" style="fill:#FFD400;fill:color(display-p3 1.0000 0.8314 0.0000);fill-opacity:1;"/>
<path d="M28.6666 56.6667L31.9999 60L35.3332 56.6667L31.9999 53.3334L28.6666 56.6667Z" fill="#FFD400" style="fill:#FFD400;fill:color(display-p3 1.0000 0.8314 0.0000);fill-opacity:1;"/>
<path d="M41.4467 55.0287L46.0001 56.2488L47.2201 51.6954L42.6668 50.4753L41.4467 55.0287Z" fill="#FFD400" style="fill:#FFD400;fill:color(display-p3 1.0000 0.8314 0.0000);fill-opacity:1;"/>
<path d="M51.6954 47.2201L56.2488 46L55.0287 41.4467L50.4753 42.6667L51.6954 47.2201Z" fill="#FFD400" style="fill:#FFD400;fill:color(display-p3 1.0000 0.8314 0.0000);fill-opacity:1;"/>
<path d="M56.6668 35.3332L60.0001 31.9999L56.6668 28.6666L53.3335 31.9999L56.6668 35.3332Z" fill="#FFD400" style="fill:#FFD400;fill:color(display-p3 1.0000 0.8314 0.0000);fill-opacity:1;"/>
<path d="M55.0287 22.5534L56.2488 18L51.6954 16.7799L50.4753 21.3333L55.0287 22.5534Z" fill="#FFD400" style="fill:#FFD400;fill:color(display-p3 1.0000 0.8314 0.0000);fill-opacity:1;"/>
<path d="M47.2201 12.3046L46.0001 7.75127L41.4467 8.97135L42.6668 13.5247L47.2201 12.3046Z" fill="#FFD400" style="fill:#FFD400;fill:color(display-p3 1.0000 0.8314 0.0000);fill-opacity:1;"/>
</g>
<defs>
<clipPath id="clip0_6_961">
<rect width="64" height="64" fill="white" style="fill:white;fill-opacity:1;"/>
</clipPath>
</defs>
</svg>
