<svg width="150" height="150" viewBox="0 0 150 150" fill="none" xmlns="http://www.w3.org/2000/svg">
<g clip-path="url(#clip0_1_1490)">
<mask id="mask0_1_1490" style="mask-type:luminance" maskUnits="userSpaceOnUse" x="0" y="0" width="150" height="150">
<path d="M150 0H0V150H150V0Z" fill="white" style="fill:white;fill-opacity:1;"/>
</mask>
<g mask="url(#mask0_1_1490)">
<path d="M75 150C116.421 150 150 116.421 150 75C150 33.5786 116.421 0 75 0C33.5786 0 0 33.5786 0 75C0 116.421 33.5786 150 75 150Z" fill="#231D9A" style="fill:#231D9A;fill:color(display-p3 0.1373 0.1137 0.6039);fill-opacity:1;"/>
<path fill-rule="evenodd" clip-rule="evenodd" d="M77.0206 20.2188L74.9999 14L72.9793 20.2188H66.4404L71.7305 24.0623L69.7099 30.2812L74.9999 26.4377L80.29 30.2812L78.2694 24.0623L83.5594 20.2188H77.0206ZM50.5801 27.2188L48.5595 21L46.5389 27.2188H40L45.2901 31.0623L43.2694 37.2812L48.5595 33.4377L53.8496 37.2812L51.8289 31.0623L57.119 27.2188H50.5801ZM28.5595 41L30.5801 47.2188H37.119L31.8289 51.0623L33.8496 57.2812L28.5595 53.4377L23.2694 57.2812L25.2901 51.0623L20 47.2188H26.5389L28.5595 41ZM24.5801 73.2188L22.5595 67L20.5389 73.2188H14L19.2901 77.0623L17.2694 83.2812L22.5595 79.4377L27.8496 83.2812L25.8289 77.0623L31.119 73.2188H24.5801ZM29.5595 94L31.5801 100.219H38.119L32.8289 104.062L34.8496 110.281L29.5595 106.438L24.2694 110.281L26.2901 104.062L21 100.219H27.5389L29.5595 94ZM50.5801 119.219L48.5595 113L46.5389 119.219H40L45.2901 123.062L43.2694 129.281L48.5595 125.438L53.8496 129.281L51.8289 123.062L57.119 119.219H50.5801ZM75.5595 120L77.5801 126.219H84.119L78.8289 130.062L80.8496 136.281L75.5595 132.438L70.2694 136.281L72.2901 130.062L67 126.219H73.5389L75.5595 120ZM103.58 119.219L101.56 113L99.5389 119.219H93L98.2901 123.062L96.2694 129.281L101.56 125.438L106.85 129.281L104.829 123.062L110.119 119.219H103.58ZM121.56 93L123.58 99.2188H130.119L124.829 103.062L126.85 109.281L121.56 105.438L116.269 109.281L118.29 103.062L113 99.2188H119.539L121.56 93ZM129.58 73.2188L127.56 67L125.539 73.2188H119L124.29 77.0623L122.269 83.2812L127.56 79.4377L132.85 83.2812L130.829 77.0623L136.119 73.2188H129.58ZM120.56 41L122.58 47.2188H129.119L123.829 51.0623L125.85 57.2812L120.56 53.4377L115.269 57.2812L117.29 51.0623L112 47.2188H118.539L120.56 41ZM103.58 27.2188L101.56 21L99.5389 27.2188H93L98.2901 31.0623L96.2694 37.2812L101.56 33.4377L106.85 37.2812L104.829 31.0623L110.119 27.2188H103.58Z" fill="#FFD400" style="fill:#FFD400;fill:color(display-p3 1.0000 0.8314 0.0000);fill-opacity:1;"/>
</g>
</g>
<defs>
<clipPath id="clip0_1_1490">
<rect width="150" height="150" fill="white" style="fill:white;fill-opacity:1;"/>
</clipPath>
</defs>
</svg>
