<svg width="64" height="64" viewBox="0 0 64 64" fill="none" xmlns="http://www.w3.org/2000/svg">
<g clip-path="url(#clip0_6_976)">
<path d="M32 64C49.6731 64 64 49.6731 64 32C64 14.3269 49.6731 0 32 0C14.3269 0 0 14.3269 0 32C0 49.6731 14.3269 64 32 64Z" fill="#191977" style="fill:#191977;fill:color(display-p3 0.0980 0.0980 0.4667);fill-opacity:1;"/>
<path d="M24 20.2569L8.71231 10.0651C8.09781 10.7172 7.51081 11.3947 6.95231 12.0967L24 23.4619V24.0001H15.1927L3.98711 16.5297C3.55421 17.3118 3.15711 18.1158 2.78951 18.9362L10.3853 24H1.00821C0.783206 24.8741 0.602106 25.7653 0.450806 26.6667H26.6666V0.4508C25.7653 0.6021 24.874 0.7832 23.9999 1.0082L24 20.2569Z" fill="white" style="fill:white;fill-opacity:1;"/>
<path d="M0.450806 37.3333C0.602106 38.2346 0.783206 39.1259 1.00821 40H10.3853L2.78961 45.0638C3.15721 45.8843 3.55431 46.6882 3.98721 47.4704L15.1927 40H24V40.5382L6.95231 51.9034C7.51081 52.6053 8.09781 53.2828 8.71231 53.9349L24 43.7431V62.9918C24.8741 63.2168 25.7653 63.3979 26.6667 63.5492V37.3334L0.450806 37.3333Z" fill="white" style="fill:white;fill-opacity:1;"/>
<path d="M63.5493 26.6667C63.398 25.7654 63.2169 24.8741 62.9919 24H53.6147L61.2105 18.9362C60.843 18.1157 60.4459 17.3118 60.0129 16.5297L48.8073 24.0001H40V23.4619L57.0477 12.0967C56.4891 11.3948 55.9022 10.7173 55.2877 10.0651L40 20.2569V1.0082C39.1259 0.7832 38.2347 0.6021 37.3333 0.4508V26.6666L63.5493 26.6667Z" fill="white" style="fill:white;fill-opacity:1;"/>
<path d="M37.3333 37.3333V63.5491C38.2346 63.3978 39.1259 63.2167 40 62.9917V43.743L55.2877 53.9348C55.9022 53.2827 56.4891 52.6052 57.0476 51.9033L40 40.5381V39.9999H48.8073L60.0127 47.4703C60.4456 46.6881 60.8428 45.8842 61.2104 45.0637L53.6147 39.9999H62.9917C63.2167 39.1258 63.3978 38.2346 63.5491 37.3332L37.3333 37.3333Z" fill="white" style="fill:white;fill-opacity:1;"/>
<path d="M24 24V23.4618L6.95226 12.0967C5.84696 13.4859 4.85226 14.9664 3.98706 16.5296L15.1927 24H24Z" fill="#F0263C" style="fill:#F0263C;fill:color(display-p3 0.9412 0.1490 0.2353);fill-opacity:1;"/>
<path d="M60.0129 16.5296C59.1477 14.9663 58.1531 13.4858 57.0477 12.0967L40 23.4619V24.0001H48.8073L60.0129 16.5296Z" fill="#F0263C" style="fill:#F0263C;fill:color(display-p3 0.9412 0.1490 0.2353);fill-opacity:1;"/>
<path d="M3.98718 47.4704C4.85238 49.0337 5.84698 50.5142 6.95228 51.9033L24 40.5381V39.9999H15.1927L3.98718 47.4704Z" fill="#F0263C" style="fill:#F0263C;fill:color(display-p3 0.9412 0.1490 0.2353);fill-opacity:1;"/>
<path d="M40 40V40.5382L57.0477 51.9034C58.153 50.5142 59.1476 49.0337 60.0128 47.4705L48.8073 40.0001L40 40Z" fill="#F0263C" style="fill:#F0263C;fill:color(display-p3 0.9412 0.1490 0.2353);fill-opacity:1;"/>
<path d="M63.5492 26.6667H37.3334V0.4508C35.598 0.1595 33.8181 0 32 0C30.1819 0 28.402 0.1595 26.6667 0.4508V26.6666H0.4508C0.1595 28.402 0 30.1819 0 32C0 33.8181 0.1595 35.598 0.4508 37.3333H26.6666V63.5491C28.4019 63.8404 30.1819 63.9999 31.9999 63.9999C33.8179 63.9999 35.5979 63.8404 37.3332 63.5491V37.3333H63.549C63.8403 35.598 63.9998 33.818 63.9998 32C63.9998 30.182 63.8405 28.402 63.5492 26.6667Z" fill="#F0263C" style="fill:#F0263C;fill:color(display-p3 0.9412 0.1490 0.2353);fill-opacity:1;"/>
</g>
<defs>
<clipPath id="clip0_6_976">
<rect width="64" height="64" fill="white" style="fill:white;fill-opacity:1;"/>
</clipPath>
</defs>
</svg>
